<?xml version="1.0" standalone="no"?>
<!DOCTYPE svg PUBLIC "-//W3C//DTD SVG 20010904//EN"
 "http://www.w3.org/TR/2001/REC-SVG-20010904/DTD/svg10.dtd">
<svg version="1.0" xmlns="http://www.w3.org/2000/svg"
 width="1983.000000pt" height="945.000000pt" viewBox="0 0 1983.000000 945.000000"
 preserveAspectRatio="xMidYMid meet">

<g transform="translate(0.000000,945.000000) scale(0.100000,-0.100000)"
fill="#000000" stroke="none">
<path d="M7170 9440 c-727 -28 -985 -47 -1072 -82 -38 -14 -35 -23 11 -41 31
-13 87 -16 286 -16 250 -1 371 -6 909 -41 290 -19 301 -21 362 -49 74 -35 133
-91 171 -163 28 -53 28 -54 27 -238 -1 -102 -5 -229 -9 -283 l-7 -97 -316 0
c-175 -1 -632 -5 -1017 -10 -385 -4 -703 -5 -707 -2 -3 4 -8 129 -10 277 l-3
270 29 59 c17 35 51 79 84 110 169 157 173 164 130 188 -38 20 -174 14 -240
-12 -128 -48 -241 -169 -287 -307 -20 -59 -39 -222 -56 -490 l-7 -102 -57 -6
c-413 -42 -729 -183 -1008 -449 -240 -229 -402 -519 -476 -850 -22 -100 -22
-110 -20 -771 3 -1275 44 -2450 88 -2494 11 -11 23 21 35 98 9 55 13 271 15
776 2 592 17 1349 40 2015 6 188 26 311 70 447 72 217 177 386 345 553 163
164 334 271 539 340 214 72 303 77 1031 61 1162 -26 2597 -51 4020 -71 371 -5
1526 -14 2565 -20 1183 -6 1927 -14 1989 -21 235 -25 462 -125 660 -290 243
-204 406 -493 450 -800 8 -57 17 -196 21 -309 24 -816 76 -1325 135 -1325 45
0 94 324 139 910 34 443 43 626 36 730 -30 436 -238 846 -572 1125 -262 219
-563 345 -903 380 -178 18 -2770 24 -4678 11 -965 -7 -1757 -10 -1760 -6 -4 4
-10 120 -14 258 -7 279 -15 325 -74 437 -66 125 -199 238 -333 282 -80 25
-226 30 -561 18z"/>
<path d="M12785 7419 c-88 -12 -127 -24 -192 -61 -74 -41 -140 -109 -170 -174
-21 -47 -25 -66 -21 -132 4 -95 31 -154 99 -222 94 -94 263 -166 463 -196 125
-20 393 -13 506 11 251 55 436 166 500 300 53 112 22 236 -80 329 -135 120
-348 170 -585 136 -96 -14 -107 -30 -19 -30 254 -1 584 -171 584 -301 0 -37
-39 -93 -88 -127 -167 -113 -553 -145 -847 -71 -161 41 -305 130 -305 189 0
30 44 74 107 107 56 30 168 69 323 113 149 43 189 88 105 117 -50 18 -284 25
-380 12z"/>
<path d="M9900 7273 c-578 -31 -1096 -235 -1518 -598 -271 -233 -477 -503
-632 -828 -67 -142 -99 -236 -133 -403 -62 -297 -88 -704 -46 -704 15 0 37
102 43 198 8 127 39 271 96 442 88 266 188 462 338 664 88 118 282 320 397
413 304 246 674 413 1073 485 111 20 159 23 387 23 227 0 276 -3 389 -24 774
-138 1424 -655 1739 -1382 65 -150 100 -254 168 -502 65 -240 92 -313 121
-328 16 -9 21 -5 35 28 22 50 30 376 13 542 -29 282 -70 432 -180 656 -218
445 -564 795 -1020 1033 -284 149 -590 242 -890 271 -124 12 -302 19 -380 14z"/>
<path d="M9443 5556 c-195 -45 -354 -213 -398 -421 -44 -209 16 -405 184 -607
90 -107 167 -179 479 -447 198 -169 227 -191 258 -191 20 0 45 5 57 12 38 19
490 412 591 513 227 225 317 412 302 628 -14 212 -124 386 -298 471 -200 98
-414 61 -574 -98 l-71 -71 -49 54 c-124 137 -307 196 -481 157z"/>
<path d="M628 3690 c-160 -29 -256 -78 -363 -185 -91 -91 -134 -159 -181 -283
-61 -162 -78 -271 -78 -502 0 -150 5 -232 17 -305 41 -233 111 -440 191 -559
45 -66 74 -80 107 -50 26 23 24 46 -7 91 -157 231 -241 696 -188 1051 34 232
154 431 310 514 107 57 226 72 295 38 125 -64 171 -250 200 -804 13 -245 7
-1066 -10 -1421 -16 -323 -41 -743 -55 -912 -15 -181 -8 -250 29 -298 34 -46
58 -57 116 -57 94 0 138 65 164 239 25 171 62 929 68 1388 l2 159 65 13 c549
110 1085 635 1195 1171 18 84 21 261 6 337 -37 187 -133 313 -276 358 -118 37
-222 29 -335 -26 -88 -43 -227 -181 -310 -307 -112 -171 -237 -454 -310 -705
-18 -60 -36 -116 -40 -123 -4 -8 -10 53 -14 135 -12 267 -50 570 -88 693 -47
154 -137 273 -244 326 -46 22 -73 28 -138 30 -45 2 -102 -1 -128 -6z m1422
-188 c62 -44 100 -178 100 -352 0 -332 -136 -637 -405 -906 -154 -154 -335
-276 -474 -319 l-24 -7 7 73 c48 512 292 1168 524 1411 110 116 201 149 272
100z"/>
<path d="M3224 3682 c-347 -124 -640 -714 -758 -1527 -63 -433 -67 -957 -10
-1355 38 -266 68 -360 124 -393 57 -34 150 -12 193 45 10 14 38 101 62 194
143 560 353 998 494 1029 100 22 110 -131 40 -605 -62 -419 -71 -514 -67 -685
5 -174 19 -229 73 -301 61 -80 176 -100 282 -49 149 73 365 369 559 768 24 50
45 83 48 76 2 -8 11 -49 21 -92 69 -314 344 -475 642 -376 117 38 250 144 318
252 28 44 33 47 101 62 90 20 210 78 324 155 88 61 301 245 318 277 8 13 12
-1 16 -53 24 -253 58 -437 110 -596 106 -324 286 -520 463 -506 70 6 122 43
180 130 69 106 115 228 240 653 4 14 13 -2 32 -56 15 -41 40 -97 56 -124 134
-230 452 -292 692 -136 68 44 163 138 201 198 25 39 31 43 98 58 139 31 327
143 505 301 93 82 229 232 255 281 17 29 17 33 1 57 -30 46 -58 35 -129 -52
-152 -183 -349 -348 -510 -426 -51 -25 -102 -47 -114 -51 l-21 -5 22 77 c51
176 57 413 15 579 -46 181 -141 314 -268 376 -59 29 -74 32 -151 32 -100 -1
-178 -21 -272 -70 -203 -107 -366 -356 -414 -634 -9 -47 -28 -128 -44 -180
-16 -52 -52 -174 -80 -270 -92 -319 -147 -464 -195 -509 -23 -21 -26 -22 -54
-7 -85 44 -182 240 -230 467 -86 398 -87 1042 -2 1568 11 69 22 127 24 129 2
2 55 10 117 18 229 30 393 69 771 184 596 182 850 228 1201 217 140 -4 191
-10 277 -31 190 -48 342 -138 407 -241 32 -52 64 -66 93 -40 27 25 25 53 -8
106 -120 189 -454 319 -818 319 -321 0 -641 -59 -1124 -208 -249 -77 -420
-125 -540 -152 -105 -24 -343 -61 -349 -54 -7 6 49 211 97 354 45 136 102 272
207 497 65 141 78 208 50 266 -23 48 -60 71 -117 71 -94 0 -152 -65 -267 -299
-109 -220 -190 -447 -262 -732 l-43 -165 -56 5 c-144 15 -295 88 -417 201 -71
66 -105 80 -131 54 -28 -28 -13 -62 57 -129 124 -119 282 -200 449 -229 84
-15 80 -1 52 -172 -34 -212 -51 -405 -57 -655 l-6 -242 -77 -88 c-81 -92 -199
-198 -303 -272 -59 -41 -216 -122 -264 -136 l-22 -6 18 54 c49 141 64 354 36
524 -38 232 -137 393 -283 461 -48 22 -71 26 -147 26 -163 -1 -302 -62 -430
-189 -122 -121 -207 -280 -249 -468 -51 -223 -363 -808 -520 -975 -62 -66 -98
-87 -126 -72 -60 32 -47 218 55 762 49 262 65 399 65 546 0 204 -38 307 -134
367 -44 27 -58 30 -130 30 -66 0 -91 -5 -137 -26 -190 -89 -372 -387 -523
-857 -25 -79 -46 -151 -46 -160 -1 -15 -2 -15 -9 -2 -12 21 -31 209 -38 380
l-5 145 77 80 c335 346 702 1076 811 1615 22 108 25 143 21 260 -2 74 -9 152
-16 172 -19 60 -73 130 -124 162 -42 26 -60 30 -135 33 -66 3 -100 -1 -138
-15z m282 -199 c27 -55 32 -254 9 -364 -62 -308 -219 -715 -400 -1040 -113
-203 -286 -452 -360 -519 l-28 -25 7 120 c38 673 289 1473 555 1768 51 58 117
97 162 97 33 0 39 -4 55 -37z m4319 -1794 c26 -7 56 -28 86 -59 52 -53 81
-125 100 -250 13 -86 7 -299 -10 -376 -11 -46 -16 -52 -43 -58 -17 -3 -48 -23
-69 -45 -32 -32 -39 -46 -39 -78 0 -26 8 -50 21 -67 l21 -26 -31 -39 c-77 -97
-161 -150 -251 -158 -100 -9 -173 49 -220 173 -52 140 -66 388 -30 529 53 209
197 396 344 447 61 21 69 21 121 7z m-2702 -13 c40 -16 94 -76 118 -130 54
-125 67 -427 23 -577 -2 -9 -18 -19 -34 -23 -16 -3 -46 -20 -65 -38 -48 -44
-58 -105 -26 -149 26 -35 27 -33 -53 -117 -96 -101 -227 -139 -310 -90 -112
66 -176 282 -163 553 13 280 150 501 350 564 74 24 117 26 160 7z"/>
<path d="M10795 3686 c-386 -75 -605 -427 -605 -971 0 -280 63 -573 169 -782
70 -140 119 -176 158 -117 16 26 16 28 -5 63 -87 143 -144 294 -184 491 -20
100 -23 145 -23 340 0 245 11 322 63 444 96 227 276 366 471 366 88 0 172 -79
207 -195 84 -277 106 -1195 54 -2235 -15 -288 -39 -650 -51 -776 -15 -148 -2
-213 51 -266 37 -37 59 -44 119 -39 98 9 137 107 160 401 24 305 51 940 51
1213 0 125 3 169 13 171 6 2 52 13 100 25 410 96 839 446 1037 846 96 194 130
325 130 497 -1 306 -131 496 -365 529 -247 35 -470 -142 -670 -531 -73 -143
-134 -296 -190 -475 -26 -82 -50 -158 -54 -169 -4 -10 -12 69 -19 176 -23 379
-68 641 -131 765 -42 85 -129 176 -199 209 -68 32 -182 40 -287 20z m1445
-184 c82 -58 120 -292 85 -525 -56 -372 -320 -748 -673 -958 -91 -54 -201
-103 -210 -94 -9 9 16 216 44 354 152 748 538 1374 754 1223z"/>
<path d="M17218 2331 c-20 -4 -48 -15 -63 -25 -110 -72 29 -216 210 -216 101
0 155 32 155 91 0 42 -29 80 -87 111 -39 22 -150 51 -172 47 -3 -1 -22 -5 -43
-8z"/>
<path d="M12785 1886 c-297 -78 -585 -443 -645 -816 -14 -93 -12 -236 5 -326
30 -156 106 -269 220 -325 153 -75 325 -33 461 114 75 81 110 134 180 275 l61
123 7 -65 c23 -222 114 -394 243 -457 72 -34 179 -33 253 3 148 73 317 265
522 596 l70 113 34 -50 c48 -71 125 -145 270 -257 68 -53 124 -100 124 -104 0
-5 -35 -33 -77 -63 -101 -70 -177 -152 -210 -224 -35 -76 -37 -185 -6 -254 28
-63 75 -114 130 -140 88 -43 263 -22 375 44 107 63 197 206 219 349 16 99 2
189 -45 283 -19 38 -34 70 -33 70 46 21 397 241 487 305 69 49 127 90 130 89
3 0 16 -23 30 -52 35 -72 141 -180 298 -304 l133 -105 -80 -55 c-108 -73 -193
-166 -222 -240 -59 -153 -4 -320 128 -384 53 -26 156 -30 245 -9 171 40 304
183 344 368 26 123 12 224 -46 331 -17 30 -29 55 -27 56 1 1 52 31 112 65 124
72 344 213 413 265 24 19 48 35 51 35 3 0 7 -53 9 -118 10 -411 142 -634 377
-636 106 -1 182 39 306 163 90 91 223 263 292 378 18 29 34 53 38 53 3 0 9
-31 12 -68 24 -287 177 -482 411 -523 209 -36 447 78 571 274 28 44 33 47 102
62 184 41 458 227 647 440 132 148 145 174 108 208 -36 33 -56 21 -143 -84
-133 -162 -321 -319 -474 -396 -79 -40 -145 -65 -145 -55 0 4 9 39 20 79 32
123 43 227 37 367 -12 294 -111 487 -293 577 -63 31 -74 33 -158 32 -108 -1
-191 -25 -286 -80 -85 -50 -194 -159 -253 -254 -51 -82 -111 -220 -122 -282
-7 -38 -101 -202 -198 -347 -82 -121 -162 -224 -233 -295 -64 -65 -67 -67
-107 -62 -55 7 -87 34 -120 98 -45 88 -60 203 -54 414 6 195 22 317 68 523 34
156 31 191 -26 241 -84 73 -225 59 -270 -28 -22 -44 -61 -217 -80 -356 -9 -66
-18 -133 -21 -150 -3 -24 -21 -43 -87 -91 -116 -86 -296 -203 -444 -289 l-126
-73 -134 120 c-228 206 -279 276 -290 397 -5 54 -2 68 26 125 61 124 165 187
317 194 111 5 166 -10 242 -68 64 -49 106 -53 124 -14 10 21 9 31 -6 59 -48
89 -164 168 -296 201 -87 22 -246 22 -329 1 -255 -68 -449 -311 -426 -537 l6
-55 -98 -71 c-128 -94 -300 -205 -444 -287 l-115 -66 -85 76 c-278 254 -334
330 -334 458 0 85 27 146 93 207 69 64 141 91 248 96 111 5 166 -10 242 -68
56 -43 91 -50 116 -24 23 22 20 46 -12 90 -95 130 -244 196 -447 197 -177 1
-317 -55 -436 -173 -115 -115 -170 -258 -152 -394 l10 -70 -68 -113 c-147
-242 -249 -384 -358 -495 -62 -64 -81 -78 -107 -78 -77 0 -141 86 -170 229
-14 70 -16 121 -11 290 5 211 25 368 67 532 11 43 20 97 20 121 0 146 -195
210 -301 98 l-35 -37 -27 23 c-65 56 -240 87 -342 60z m313 -181 l29 -35 -18
-98 c-10 -53 -30 -161 -44 -239 -55 -308 -173 -575 -314 -706 -53 -49 -104
-77 -142 -77 -38 0 -95 69 -119 145 -28 87 -31 271 -7 381 52 235 186 456 352
581 78 59 130 81 192 82 36 1 45 -4 71 -34z m5735 -29 c40 -16 94 -76 118
-130 54 -125 67 -427 23 -577 -2 -9 -18 -19 -34 -23 -16 -3 -46 -20 -65 -38
-48 -44 -58 -105 -26 -149 26 -35 27 -33 -53 -118 -98 -103 -223 -138 -311
-86 -98 57 -151 204 -162 445 -8 201 23 339 106 466 70 108 149 173 248 204
70 23 113 24 156 6z m-4123 -1119 c36 -73 55 -176 46 -238 -31 -208 -293 -284
-361 -104 -34 88 -3 186 87 271 44 43 172 134 188 134 5 0 23 -28 40 -63z
m1420 -1 c84 -169 55 -341 -69 -414 -94 -55 -201 -28 -242 62 -40 89 -15 182
75 271 54 54 179 145 198 145 4 0 21 -29 38 -64z"/>
</g>
</svg>
